<svg xmlns="http://www.w3.org/2000/svg" width="159.445" height="183.856" viewBox="0 0 159.445 183.856"><g transform="translate(-1445 -4552.144)"><g transform="translate(1255.626 4441.363)"><path d="M322.2,156.5c4.729,2.664,9.234,5.91,14.248,7.831,5.163,1.978,10.821,2.663,16.828,3.359-10.29-10.709-14.083-22.293-8.236-35.732l1.954-.218c0,1.449.351,3.005-.056,4.329-3.015,9.812-.709,18.231,6.233,25.608,3.894,4.138,7.983,6.982,14.282,6.624,4.928-.28,9.957,1.222,15.375,1.994a26.483,26.483,0,0,1-1.312-3.768c-1.3-6.768-2.387-13.578-3.811-20.317-.368-1.74-1.3-4.194-2.632-4.75-5.088-2.128-10.444-3.616-16.438-5.586.938-.5,2.188-1.768,3.18-1.591,5.456.972,10.849,2.3,16.776,3.617.178-.568.6-2.027,1.087-3.462,3.55-10.375,9.357-18.625,20.673-21.479a24.028,24.028,0,0,1,6.018-.488c.637.005,1.267.826,1.9,1.274-.65.608-1.214,1.567-1.969,1.754-1.664.411-3.47.242-5.137.647a23.129,23.129,0,0,0-14.281,10.6c-9.975,15.64-6.823,38.977,6.866,51.39.4.365.89.636,1.75,1.242,5.866-10.6,11.58-20.954,12.522-33.094a16.711,16.711,0,0,0-5.163-13.358c-.684-.7-.659-2.092-.96-3.165,1.111.3,2.529.26,3.283.949a18.324,18.324,0,0,1,5.846,17.765c-1.385,6.882-4.031,13.511-6.176,20.235-.424,1.33-1.074,2.588-1.462,3.507,6.372-1.783,12.8-3.583,19.222-5.376a1.964,1.964,0,0,1,.854-.13c7.576,1.544,10.293-3.645,13-9.143,3.841-7.8,5.45-15.812,3.274-24.4a13.49,13.49,0,0,1-.034-3.218l1.437-.561c.714,1.384,1.78,2.7,2.085,4.165a35.775,35.775,0,0,1-2.893,23.667c-1.461,2.967-3.016,5.888-4.532,8.838,8.856,3.724,19.83,1.107,25.649-6.035.456-.56.74-1.355,1.311-1.705A21.086,21.086,0,0,1,465.89,157c-.111,1.038.117,2.291-.385,3.079-3.784,5.936-9.046,9.928-16.227,10.259a150.458,150.458,0,0,1-17.783-.407,41.579,41.579,0,0,0-33.678,12.639c.566,1.161,1.134,2.455,1.806,3.692,8.475,15.589,8.1,31.1-.861,46.267-2.208,3.735-2.171,6.427.7,9.517,3.146,3.39,6.089,6.972,9.05,10.529a9.917,9.917,0,0,1,2.046,4.07c-4.723-.079-6.423-4.077-8.968-6.773-2.651-2.81-4.877-6.022-7.429-9.233-4.516,5.062-8.752,9.956-13.187,14.66-.89.944-2.54,1.17-3.84,1.727.492-1.336.675-2.924,1.528-3.963,3.671-4.474,7.5-8.819,11.351-13.142,1.643-1.845,1.892-3.425.624-5.778-8.52-15.812-8.07-31.649.64-47.215,1.638-2.927,1.388-4.655-.939-7.051-6.635-6.83-15.141-7.9-23.891-8.538-8.357-.605-16.912-.332-25.005-2.132-6.12-1.361-11.684-5.309-17.41-8.272-1.139-.589-1.89-1.928-2.82-2.921Zm73.453,30.206c-9.709,12.508-10.3,35.8-1.343,46.02C404.385,221.074,405.1,200.215,395.657,186.706Z" transform="translate(-123.398 -1.04)" fill="#312723"/><path d="M344.406,301.36c-3.823-1.367-8.484-2.541-12.688-4.634-9.572-4.765-12.846-13.543-13.744-23.51-.064-.714.872-1.518,1.342-2.28a9.341,9.341,0,0,1,1.78,1.918,8.349,8.349,0,0,1,.494,2.538c1.83,12.246,8.2,19.338,20.41,21.484,6.538,1.149,13.287,1.1,19.941,1.591l.355-1.511c-1.728-1.1-3.488-2.157-5.178-3.314-5.7-3.9-8.582-9.27-8.078-16.221.088-1.216.969-2.374,1.964-4.661.813,1.911,1.178,2.393,1.207,2.894.648,11.1,4.824,16.218,15.522,19.5,2.17.666,6.23-.4,5.914,3.424-.343,4.159-4.36,2.43-6.7,2.517-8.656.323-17.1,1.39-24.323,6.542-3.127,2.229-5.616,5.34-8.491,7.944a29.527,29.527,0,0,1-3.647,2.458c.374-1.509.271-3.478,1.2-4.448C335.848,309.286,340.3,305.264,344.406,301.36Z" transform="translate(-121.402 -98.745)" fill="#312723"/><path d="M562.865,300.326c10.2,1.975,19.222,1.358,27.95-1.762,9.014-3.222,12.943-10.545,14.618-19.455a50.26,50.26,0,0,1,1.592-5.126c3.145,5.18-.027,15.613-5.589,21.522-5.58,5.926-12.952,7.738-21.8,9.046,2.139,1.415,3.543,2.044,4.551,3.064,3.621,3.664,7.17,7.4,10.579,11.264.528.6.179,1.969.235,2.983-1.02-.484-2.5-.689-2.989-1.5-5.169-8.452-12.946-13.141-22.31-15.24-4.345-.974-8.94-.793-13.345-1.566-1.448-.254-2.658-1.862-3.977-2.852a23.6,23.6,0,0,1,3.892-2.531c1.992-.814,4.211-1.072,6.211-1.871,7.291-2.91,12.252-7.588,11.986-16.187-.028-.921.836-1.87,1.287-2.807.641.926,1.773,1.814,1.847,2.783a16.854,16.854,0,0,1-7.643,16C567.983,297.47,565.823,298.576,562.865,300.326Z" transform="translate(-265.928 -100.624)" fill="#312723"/><path d="M503.959,210.814c-5.33-7.3-5.534-18.413-.646-25.235C508.984,191.132,509.387,203.23,503.959,210.814Z" transform="translate(-233.509 -46.117)" fill="#87b226"/><path d="M345.616,186.557c7,3.374,7.714,8.869,4.089,15.722C342.886,198.151,342.54,193.761,345.616,186.557Z" transform="translate(-137.301 -46.72)" fill="#87b226"/><path d="M428.014,209.817c-7.921-2.861-11.263-8.448-9.664-15.7C425.533,195.436,429.4,201.571,428.014,209.817Z" transform="translate(-183.051 -51.379)" fill="#87b226"/><path d="M567.658,112.7c3.33,7.415,1.181,14.016-5.611,17.236C558.682,122.838,560.814,116.291,567.658,112.7Z" transform="translate(-270.922 -1.183)" fill="#87b226"/><path d="M316.592,348.654c-7.7,2.734-13.148.681-17.387-6.348C306.952,338.062,315.159,346.234,316.592,348.654Z" transform="translate(-109.831 -142.008)" fill="#87b226"/><path d="M567.976,283.2c-1.591,8.171-6.361,12.019-14.126,11.669C554.877,286.97,560.375,282.335,567.976,283.2Z" transform="translate(-266.835 -106.244)" fill="#87b226"/><path d="M694.14,344.387c-1.3,8.486-5.355,12.46-12.993,12.74C681.426,348.83,687.187,343.181,694.14,344.387Z" transform="translate(-345.321 -143.932)" fill="#87b226"/><path d="M426.843,386.085c-3.122,7.128-7.709,9.259-16.657,7.932C411.084,387.45,418.142,384,426.843,386.085Z" transform="translate(-178.258 -169.367)" fill="#87b226"/><path d="M578.161,210.462c-.665-9.134,2.2-13.851,9.459-15.873C589.5,202.307,586.255,207.915,578.161,210.462Z" transform="translate(-281.767 -51.673)" fill="#87b226"/><path d="M451.811,299.33c-8.356-.366-12.66-4.21-14.039-12.2C445.234,286.336,450.019,290.415,451.811,299.33Z" transform="translate(-195.266 -108.67)" fill="#87b226"/><path d="M360.814,296.073c8.067-.133,12.9,4.081,14.062,11.959C368.178,309.372,363.089,305.116,360.814,296.073Z" transform="translate(-147.817 -114.242)" fill="#87b226"/><path d="M443.834,126.47c-2.124-6.289,2.229-14.813,9.441-15.689C454.517,119.159,451.2,124.68,443.834,126.47Z" transform="translate(-198.671 0)" fill="#87b226"/><path d="M666.97,184.842c2.264,8.592.19,13.723-6.707,17.174C657.116,195.217,659.7,188.357,666.97,184.842Z" transform="translate(-331.633 -45.663)" fill="#87b226"/><path d="M644.536,291.905c-.362,8.317-4,12.584-11.728,13.767C631.761,298.076,637.075,291.838,644.536,291.905Z" transform="translate(-315.436 -111.674)" fill="#87b226"/><path d="M573.923,371.963c7.164-2.685,13.734.332,16.607,7.626C583.248,382.117,576.913,379.209,573.923,371.963Z" transform="translate(-279.211 -160.437)" fill="#87b226"/></g><text transform="translate(1464 4725)" fill="#312723" font-size="20" font-family="ElMessiri-Regular, El Messiri"><tspan x="0" y="0" xml:space="preserve">Location  Map</tspan></text></g></svg>